<svg width="94" height="60" viewBox="0 0 94 60" fill="none" xmlns="http://www.w3.org/2000/svg">
<mask id="path-1-inside-1_2407_2361" fill="white">
<path d="M50.982 17.7164C47.9837 13.9323 43.8707 11.1876 39.2256 9.87133C34.5805 8.55503 29.6389 8.73384 25.1011 10.3824C20.5633 12.031 16.6594 15.0658 13.9424 19.0567C11.2255 23.0477 9.83329 27.7924 9.96316 32.6187C10.093 37.4449 11.7383 42.1079 14.666 45.947C17.5936 49.786 21.6551 52.6065 26.275 54.0086C30.8949 55.4108 35.8389 55.3236 40.4065 53.7594C44.9741 52.1952 48.9336 49.2333 51.7241 45.2934L50.1893 44.2064C47.627 47.8242 43.9913 50.5439 39.7972 51.9802C35.6031 53.4164 31.0634 53.4965 26.8212 52.209C22.5791 50.9215 18.8497 48.3317 16.1615 44.8065C13.4732 41.2814 11.9624 36.9997 11.8432 32.5681C11.7239 28.1365 13.0023 23.7797 15.4971 20.1151C17.9919 16.4505 21.5766 13.6639 25.7433 12.1501C29.9101 10.6363 34.4475 10.4721 38.7128 11.6808C42.9781 12.8895 46.7548 15.4097 49.5079 18.8844L50.982 17.7164Z"/>
</mask>
<path d="M50.982 17.7164C47.9837 13.9323 43.8707 11.1876 39.2256 9.87133C34.5805 8.55503 29.6389 8.73384 25.1011 10.3824C20.5633 12.031 16.6594 15.0658 13.9424 19.0567C11.2255 23.0477 9.83329 27.7924 9.96316 32.6187C10.093 37.4449 11.7383 42.1079 14.666 45.947C17.5936 49.786 21.6551 52.6065 26.275 54.0086C30.8949 55.4108 35.8389 55.3236 40.4065 53.7594C44.9741 52.1952 48.9336 49.2333 51.7241 45.2934L50.1893 44.2064C47.627 47.8242 43.9913 50.5439 39.7972 51.9802C35.6031 53.4164 31.0634 53.4965 26.8212 52.209C22.5791 50.9215 18.8497 48.3317 16.1615 44.8065C13.4732 41.2814 11.9624 36.9997 11.8432 32.5681C11.7239 28.1365 13.0023 23.7797 15.4971 20.1151C17.9919 16.4505 21.5766 13.6639 25.7433 12.1501C29.9101 10.6363 34.4475 10.4721 38.7128 11.6808C42.9781 12.8895 46.7548 15.4097 49.5079 18.8844L50.982 17.7164Z" stroke="#F4F7FA" stroke-width="4" stroke-linecap="round" stroke-linejoin="round" mask="url(#path-1-inside-1_2407_2361)"/>
<circle cx="16.9548" cy="15.45" r="7" fill="#FDB94B"/>
<path d="M24.2813 23.2051C22.2466 25.0219 19.6093 26.0179 16.8815 25.9998C14.1538 25.9816 11.5301 24.9505 9.5197 23.1067C7.50936 21.2629 6.25581 18.7379 6.0024 16.0219C5.74899 13.3058 6.5138 10.5925 8.14836 8.40864C9.78292 6.22476 12.1706 4.72613 14.848 4.20366C17.5253 3.68118 20.3013 4.17214 22.637 5.58122C24.9727 6.99031 26.7015 9.217 27.4879 11.829C28.2742 14.4411 28.062 17.2521 26.8924 19.7165L26.0108 19.2981C27.0766 17.0523 27.27 14.4907 26.5535 12.1103C25.8369 9.73003 24.2614 7.70088 22.1329 6.4168C20.0044 5.13272 17.4747 4.68531 15.0349 5.16144C12.595 5.63756 10.4192 7.00325 8.92962 8.99338C7.44006 10.9835 6.7431 13.4561 6.97403 15.9312C7.20496 18.4063 8.3473 20.7073 10.1793 22.3875C12.0113 24.0678 14.4023 25.0074 16.8881 25.0239C19.3738 25.0405 21.7771 24.1328 23.6313 22.4772L24.2813 23.2051Z" fill="white"/>
<mask id="path-4-inside-2_2407_2361" fill="white">
<path d="M16.6865 15.7365C15.116 17.3071 13.7813 19.0968 12.7239 21.05L14.3777 21.9454C15.3487 20.1519 16.5743 18.5085 18.0164 17.0664L16.6865 15.7365Z"/>
</mask>
<path d="M16.6865 15.7365C15.116 17.3071 13.7813 19.0968 12.7239 21.05L14.3777 21.9454C15.3487 20.1519 16.5743 18.5085 18.0164 17.0664L16.6865 15.7365Z" stroke="#45206C" stroke-width="4" stroke-linecap="round" stroke-linejoin="round" mask="url(#path-4-inside-2_2407_2361)"/>
<path d="M41.9378 25.44C42.9511 25.44 43.8111 25.56 44.5178 25.8C45.2378 26.04 45.8111 26.4333 46.2378 26.98C46.6645 27.5267 46.9711 28.26 47.1578 29.18C47.3578 30.1 47.4578 31.24 47.4578 32.6C47.4578 33.9467 47.3578 35.0867 47.1578 36.02C46.9711 36.94 46.6645 37.6733 46.2378 38.22C45.8111 38.7667 45.2378 39.16 44.5178 39.4C43.8111 39.64 42.9511 39.76 41.9378 39.76C40.9111 39.76 40.0445 39.64 39.3378 39.4C38.6311 39.16 38.0578 38.7667 37.6178 38.22C37.1911 37.6733 36.8778 36.94 36.6778 36.02C36.4778 35.0867 36.3778 33.9467 36.3778 32.6C36.3778 31.24 36.4778 30.1 36.6778 29.18C36.8778 28.26 37.1911 27.5267 37.6178 26.98C38.0578 26.4333 38.6311 26.04 39.3378 25.8C40.0445 25.56 40.9111 25.44 41.9378 25.44ZM41.0778 40.32C41.8911 40.6667 42.7445 40.9467 43.6378 41.16C44.5311 41.3867 45.4845 41.58 46.4978 41.74L45.8978 43.66C44.8178 43.4333 43.8378 43.12 42.9578 42.72C42.0778 42.3333 41.2711 41.92 40.5378 41.48L41.0778 40.32ZM41.9378 27.18C41.0711 27.18 40.3845 27.3467 39.8778 27.68C39.3711 28.0133 39.0111 28.5733 38.7978 29.36C38.5978 30.1333 38.4978 31.2133 38.4978 32.6C38.4978 33.9733 38.5978 35.0533 38.7978 35.84C39.0111 36.6267 39.3711 37.1867 39.8778 37.52C40.3845 37.8533 41.0711 38.02 41.9378 38.02C42.8045 38.02 43.4845 37.8533 43.9778 37.52C44.4711 37.1867 44.8245 36.6267 45.0378 35.84C45.2645 35.0533 45.3778 33.9733 45.3778 32.6C45.3778 31.2133 45.2645 30.1333 45.0378 29.36C44.8245 28.5733 44.4711 28.0133 43.9778 27.68C43.4845 27.3467 42.8045 27.18 41.9378 27.18Z" fill="#FDB94B"/>
<path d="M64.1084 25.7V34.18C64.1084 35.5267 63.9418 36.6133 63.6084 37.44C63.2884 38.2533 62.7618 38.8467 62.0284 39.22C61.2951 39.58 60.3151 39.76 59.0884 39.76C57.8084 39.76 56.7884 39.58 56.0284 39.22C55.2684 38.8467 54.7151 38.2533 54.3684 37.44C54.0351 36.6133 53.8684 35.5267 53.8684 34.18V25.7H55.8684V34.18C55.8684 35.14 55.9618 35.9067 56.1484 36.48C56.3484 37.04 56.6751 37.44 57.1284 37.68C57.5951 37.9067 58.2151 38.02 58.9884 38.02C59.7618 38.02 60.3684 37.9067 60.8084 37.68C61.2618 37.44 61.5884 37.04 61.7884 36.48C62.0018 35.9067 62.1084 35.14 62.1084 34.18V25.7H64.1084ZM73.0005 25.7V39.5H71.0005V25.7H73.0005ZM86.4656 27.32L88.6456 27.34L81.4456 37.88L79.2256 37.86L86.4656 27.32ZM88.7856 37.86V39.5H79.2256V37.86H88.7856ZM88.6456 25.7V27.34H79.3656V25.7H88.6456Z" fill="white" fill-opacity="0.8"/>
</svg>
